<mxfile host="app.diagrams.net" modified="2023-03-03T04:49:09.011Z" agent="5.0 (Windows NT 10.0; Win64; x64) AppleWebKit/537.36 (KHTML, like Gecko) Chrome/111.0.0.0 Safari/537.36 Edg/111.0.1660.13" etag="vKzSMN7J2Yby_nEOMJne" version="20.8.22" type="github">
  <diagram name="第 1 页" id="3MDf4YGmxCO-XQUa7wRc">
    <mxGraphModel dx="843" dy="565" grid="1" gridSize="10" guides="1" tooltips="1" connect="1" arrows="1" fold="1" page="1" pageScale="1" pageWidth="827" pageHeight="1169" math="0" shadow="0">
      <root>
        <mxCell id="0" />
        <mxCell id="1" parent="0" />
        <mxCell id="fKNpqridSPWGKVHiThgp-8" style="rounded=0;orthogonalLoop=1;jettySize=auto;html=1;exitX=0;exitY=1;exitDx=0;exitDy=0;entryX=1;entryY=0;entryDx=0;entryDy=0;endArrow=none;endFill=0;fontStyle=1;strokeWidth=1;" edge="1" parent="1" source="fKNpqridSPWGKVHiThgp-1" target="fKNpqridSPWGKVHiThgp-2">
          <mxGeometry relative="1" as="geometry" />
        </mxCell>
        <mxCell id="fKNpqridSPWGKVHiThgp-9" style="edgeStyle=none;rounded=0;orthogonalLoop=1;jettySize=auto;html=1;exitX=1;exitY=1;exitDx=0;exitDy=0;endArrow=none;endFill=0;strokeColor=#000000;" edge="1" parent="1" source="fKNpqridSPWGKVHiThgp-1" target="fKNpqridSPWGKVHiThgp-3">
          <mxGeometry relative="1" as="geometry" />
        </mxCell>
        <mxCell id="fKNpqridSPWGKVHiThgp-1" value="&lt;font&gt;1&lt;/font&gt;" style="ellipse;whiteSpace=wrap;html=1;fontSize=17;fontFamily=Comic Sans MS;labelBackgroundColor=none;fillColor=#dae8fc;strokeColor=#6c8ebf;" vertex="1" parent="1">
          <mxGeometry x="400" y="120" width="40" height="40" as="geometry" />
        </mxCell>
        <mxCell id="fKNpqridSPWGKVHiThgp-10" style="edgeStyle=none;rounded=0;orthogonalLoop=1;jettySize=auto;html=1;exitX=1;exitY=1;exitDx=0;exitDy=0;entryX=0;entryY=0;entryDx=0;entryDy=0;endArrow=none;endFill=0;strokeColor=#000000;" edge="1" parent="1" source="fKNpqridSPWGKVHiThgp-2" target="fKNpqridSPWGKVHiThgp-4">
          <mxGeometry relative="1" as="geometry" />
        </mxCell>
        <mxCell id="fKNpqridSPWGKVHiThgp-11" style="edgeStyle=none;rounded=0;orthogonalLoop=1;jettySize=auto;html=1;exitX=0;exitY=1;exitDx=0;exitDy=0;endArrow=none;endFill=0;entryX=1;entryY=0;entryDx=0;entryDy=0;strokeColor=#000000;" edge="1" parent="1" source="fKNpqridSPWGKVHiThgp-2" target="fKNpqridSPWGKVHiThgp-6">
          <mxGeometry relative="1" as="geometry">
            <mxPoint x="300" y="260" as="targetPoint" />
          </mxGeometry>
        </mxCell>
        <mxCell id="fKNpqridSPWGKVHiThgp-2" value="&lt;font&gt;2&lt;/font&gt;" style="ellipse;whiteSpace=wrap;html=1;fontSize=17;fontFamily=Comic Sans MS;labelBackgroundColor=none;fillColor=#FFFFFF;" vertex="1" parent="1">
          <mxGeometry x="320" y="200" width="40" height="40" as="geometry" />
        </mxCell>
        <mxCell id="fKNpqridSPWGKVHiThgp-3" value="&lt;font&gt;3&lt;/font&gt;" style="ellipse;whiteSpace=wrap;html=1;fontSize=17;fontFamily=Comic Sans MS;labelBackgroundColor=none;fillColor=#f5f5f5;fontColor=#333333;strokeColor=#666666;" vertex="1" parent="1">
          <mxGeometry x="480" y="200" width="40" height="40" as="geometry" />
        </mxCell>
        <mxCell id="fKNpqridSPWGKVHiThgp-12" style="edgeStyle=none;rounded=0;orthogonalLoop=1;jettySize=auto;html=1;exitX=0;exitY=1;exitDx=0;exitDy=0;entryX=1;entryY=0;entryDx=0;entryDy=0;endArrow=none;endFill=0;strokeColor=#000000;" edge="1" parent="1" source="fKNpqridSPWGKVHiThgp-4" target="fKNpqridSPWGKVHiThgp-5">
          <mxGeometry relative="1" as="geometry" />
        </mxCell>
        <mxCell id="fKNpqridSPWGKVHiThgp-4" value="&lt;font&gt;4&lt;/font&gt;" style="ellipse;whiteSpace=wrap;html=1;fontSize=17;fontFamily=Comic Sans MS;labelBackgroundColor=none;fillColor=#f5f5f5;fontColor=#333333;strokeColor=#666666;" vertex="1" parent="1">
          <mxGeometry x="400" y="280" width="40" height="40" as="geometry" />
        </mxCell>
        <mxCell id="fKNpqridSPWGKVHiThgp-5" value="&lt;font&gt;5&lt;/font&gt;" style="ellipse;whiteSpace=wrap;html=1;fontSize=17;fontFamily=Comic Sans MS;labelBackgroundColor=none;fillColor=#f5f5f5;fontColor=#333333;strokeColor=#666666;" vertex="1" parent="1">
          <mxGeometry x="320" y="360" width="40" height="40" as="geometry" />
        </mxCell>
        <mxCell id="fKNpqridSPWGKVHiThgp-6" value="&lt;font&gt;6&lt;/font&gt;" style="ellipse;whiteSpace=wrap;html=1;fontSize=17;fontFamily=Comic Sans MS;labelBackgroundColor=none;fillColor=#f5f5f5;fontColor=#333333;strokeColor=#666666;" vertex="1" parent="1">
          <mxGeometry x="240" y="280" width="40" height="40" as="geometry" />
        </mxCell>
        <mxCell id="fKNpqridSPWGKVHiThgp-13" value="x = 1" style="text;html=1;strokeColor=none;fillColor=none;align=center;verticalAlign=middle;whiteSpace=wrap;rounded=0;fontSize=16;fontFamily=Comic Sans MS;" vertex="1" parent="1">
          <mxGeometry x="560" y="80" width="60" height="30" as="geometry" />
        </mxCell>
        <mxCell id="fKNpqridSPWGKVHiThgp-14" value="y = 2" style="text;html=1;strokeColor=none;fillColor=none;align=center;verticalAlign=middle;whiteSpace=wrap;rounded=0;fontSize=16;fontFamily=Comic Sans MS;" vertex="1" parent="1">
          <mxGeometry x="560" y="120" width="60" height="30" as="geometry" />
        </mxCell>
      </root>
    </mxGraphModel>
  </diagram>
</mxfile>
